<svg width="180" height="180" viewBox="0 0 180 180" fill="none" xmlns="http://www.w3.org/2000/svg">
<g clip-path="url(#clip0_136_10143)">
<mask id="mask0_136_10143" style="mask-type:luminance" maskUnits="userSpaceOnUse" x="0" y="0" width="180" height="180">
<path d="M180 0H0V180H180V0Z" fill="white"/>
</mask>
<g mask="url(#mask0_136_10143)">
<path opacity="0.9" d="M37.9998 78C35.0498 89.7 18.0998 84.67 14.6298 96C11.1698 107.35 22.6598 116 32.1598 116" stroke="#2A3544" stroke-width="6"/>
<path opacity="0.9" d="M150 121C158.4 124.49 170.1 113.4 166 104.5C161.9 95.6002 150 97.8002 150 85.2002" stroke="#2A3544" stroke-width="4"/>
<mask id="mask1_136_10143" style="mask-type:luminance" maskUnits="userSpaceOnUse" x="21" y="72" width="138" height="58">
<path d="M35 101H23C21.8954 101 21 101.895 21 103V121C21 122.105 21.8954 123 23 123H35C36.1046 123 37 122.105 37 121V103C37 101.895 36.1046 101 35 101Z" fill="white"/>
<path d="M157 108H138C136.895 108 136 108.895 136 110V128C136 129.105 136.895 130 138 130H157C158.105 130 159 129.105 159 128V110C159 108.895 158.105 108 157 108Z" fill="white"/>
<path d="M157 72H138C136.895 72 136 72.8954 136 74V88C136 89.1046 136.895 90 138 90H157C158.105 90 159 89.1046 159 88V74C159 72.8954 158.105 72 157 72Z" fill="white"/>
</mask>
<g mask="url(#mask1_136_10143)">
<path d="M0 66H180V142H0V66Z" fill="#5E35B1"/>
<path d="M0 66H180V142H0V66Z" fill="white" fill-opacity="0.3"/>
</g>
<mask id="mask2_136_10143" style="mask-type:luminance" maskUnits="userSpaceOnUse" x="51" y="22" width="80" height="30">
<path d="M51 42C51 40.9 51.9 40 53 40H129C129.53 40 130.039 40.2107 130.414 40.5858C130.789 40.9609 131 41.4696 131 42V52H51V42Z" fill="white"/>
<path d="M59 27C59 25.6739 59.5268 24.4021 60.4645 23.4645C61.4021 22.5268 62.6739 22 64 22H70C71.3261 22 72.5979 22.5268 73.5355 23.4645C74.4732 24.4021 75 25.6739 75 27V52H59V27ZM83 27C83 25.6739 83.5268 24.4021 84.4645 23.4645C85.4021 22.5268 86.6739 22 88 22H94C95.3261 22 96.5979 22.5268 97.5355 23.4645C98.4732 24.4021 99 25.6739 99 27V52H83V27ZM107 27C107 25.6739 107.527 24.4021 108.464 23.4645C109.402 22.5268 110.674 22 112 22H118C118.657 22 119.307 22.1293 119.913 22.3806C120.52 22.6319 121.071 23.0002 121.536 23.4645C122 23.9288 122.368 24.48 122.619 25.0866C122.871 25.6932 123 26.3434 123 27V52H107V27Z" fill="white"/>
</mask>
<g mask="url(#mask2_136_10143)">
<path d="M41 0H141V52H41V0Z" fill="#5E35B1"/>
<path d="M41 0H141V52H41V0Z" fill="white" fill-opacity="0.3"/>
<path d="M41 0H141V40H41V0Z" fill="white" fill-opacity="0.6"/>
<path d="M69 30C69 28.8954 68.1046 28 67 28C65.8954 28 65 28.8954 65 30V34C65 35.1046 65.8954 36 67 36C68.1046 36 69 35.1046 69 34V30Z" fill="white" fill-opacity="0.6"/>
<path d="M93 30C93 28.8954 92.1046 28 91 28C89.8954 28 89 28.8954 89 30V34C89 35.1046 89.8954 36 91 36C92.1046 36 93 35.1046 93 34V30Z" fill="white" fill-opacity="0.6"/>
<path d="M117 30C117 28.8954 116.105 28 115 28C113.895 28 113 28.8954 113 30V34C113 35.1046 113.895 36 115 36C116.105 36 117 35.1046 117 34V30Z" fill="white" fill-opacity="0.6"/>
</g>
<mask id="mask3_136_10143" style="mask-type:luminance" maskUnits="userSpaceOnUse" x="25" y="44" width="130" height="120">
<path d="M137 44H43C33.0589 44 25 52.0589 25 62V146C25 155.941 33.0589 164 43 164H137C146.941 164 155 155.941 155 146V62C155 52.0589 146.941 44 137 44Z" fill="white"/>
</mask>
<g mask="url(#mask3_136_10143)">
<path d="M23 42H157V166H23V42Z" fill="#5E35B1"/>
<path d="M39 43H35V61H39V43ZM47 43H43V77H96.42C96.8795 78.0528 97.6875 78.9153 98.7081 79.4424C99.7287 79.9696 100.9 80.1292 102.024 79.8945C103.149 79.6598 104.158 79.0451 104.883 78.1537C105.607 77.2624 106.003 76.1487 106.003 75C106.003 73.8513 105.607 72.7376 104.883 71.8463C104.158 70.9549 103.149 70.3402 102.024 70.1055C100.9 69.8708 99.7287 70.0304 98.7081 70.5576C97.6875 71.0847 96.8795 71.9472 96.42 73H47V43Z" fill="black" fill-opacity="0.1"/>
<path d="M146 77.5801C147.053 77.1207 147.915 76.3127 148.442 75.2921C148.97 74.2715 149.129 73.1005 148.895 71.976C148.66 70.8515 148.045 69.8422 147.154 69.1176C146.262 68.3931 145.149 67.9976 144 67.9976C142.851 67.9976 141.738 68.3931 140.846 69.1176C139.955 69.8422 139.34 70.8515 139.105 71.976C138.871 73.1005 139.03 74.2715 139.558 75.2921C140.085 76.3127 140.947 77.1207 142 77.5801V107H165V103H146V77.5801Z" fill="white" fill-opacity="0.2"/>
<path d="M138 89H134V115H165V111H138V89ZM51 146.58C49.9472 146.121 49.0847 145.313 48.5576 144.292C48.0304 143.271 47.8708 142.1 48.1055 140.976C48.3402 139.851 48.9549 138.842 49.8463 138.117C50.7376 137.393 51.8513 136.997 53 136.997C54.1487 136.997 55.2624 137.393 56.1537 138.117C57.0451 138.842 57.6598 139.851 57.8945 140.976C58.1292 142.1 57.9696 143.271 57.4424 144.292C56.9153 145.313 56.0528 146.121 55 146.58V176H32V172H51V146.58Z" fill="black" fill-opacity="0.2"/>
</g>
<path d="M119 129H61C58.2386 129 56 131.239 56 134V146C56 148.761 58.2386 151 61 151H119C121.761 151 124 148.761 124 146V134C124 131.239 121.761 129 119 129Z" fill="black" fill-opacity="0.2"/>
<path d="M118 133H62C60.8954 133 60 133.895 60 135V145C60 146.105 60.8954 147 62 147H118C119.105 147 120 146.105 120 145V135C120 133.895 119.105 133 118 133Z" fill="white"/>
<path d="M70 133H74V147H70V133ZM94 133H98V147H94V133ZM82 133H86V147H82V133ZM106 133H110V147H106V133Z" fill="black" fill-opacity="0.1"/>
<path d="M67.2706 85.6797C64.7206 85.8097 62.3106 87.9197 61.0206 89.8297C59.5406 88.0697 56.9206 86.2297 54.3706 86.3597C48.8906 86.6397 45.5206 90.1597 45.7406 94.4597C46.0406 100.18 50.6206 103.35 55.4406 106.7C57.1506 107.85 60.4406 110.85 60.8606 111.52C61.2806 112.19 63.0006 112.12 63.4406 111.39C64.8981 109.45 66.539 107.655 68.3406 106.03C72.7706 102.19 77.0006 98.5597 76.7006 92.8297C76.4706 88.5297 72.7506 85.3897 67.2706 85.6797ZM125.631 86.3597C123.081 86.2197 120.461 88.0597 118.981 89.8297C117.681 87.9297 115.281 85.8097 112.731 85.6797C107.251 85.3897 103.531 88.5397 103.301 92.8397C103.001 98.5597 107.231 102.19 111.661 106.03C113.261 107.35 116.211 110.67 116.561 111.39C116.911 112.09 118.621 112.21 119.141 111.52C119.651 110.82 122.841 107.85 124.561 106.7C129.371 103.35 133.961 100.18 134.261 94.4597C134.481 90.1597 131.111 86.6397 125.631 86.3597Z" fill="#FF5353" fill-opacity="0.8"/>
</g>
</g>
<defs>
<clipPath id="clip0_136_10143">
<rect width="180" height="180" fill="white"/>
</clipPath>
</defs>
</svg>
